<?xml version="1.0" encoding="utf-8"?>
<!-- Generator: Adobe Illustrator 24.0.2, SVG Export Plug-In . SVG Version: 6.00 Build 0)  -->
<svg version="1.1" id="Layer_1" xmlns="http://www.w3.org/2000/svg" xmlns:xlink="http://www.w3.org/1999/xlink" x="0px" y="0px"
	 viewBox="0 0 512 512" style="enable-background:new 0 0 512 512;" xml:space="preserve">
<style type="text/css">
	.st0{display:none;fill:none;stroke:#000000;stroke-width:19;stroke-miterlimit:10;}
	.st1{fill:none;stroke:#000000;stroke-width:16;stroke-linecap:round;stroke-linejoin:round;}
	.st2{display:none;fill:none;stroke:#000000;stroke-width:8;stroke-miterlimit:10;}
</style>
<path class="st0" d="M255.1,492.2c-134,0.5-244.3-109.9-241-245.1C17.2,118.7,124.8,12.5,258.5,14C391,15.6,500.3,124.7,496.9,259.4
	C493.7,387.5,387,493,255.1,492.2z"/>
<path class="st1" d="M308,486c-10.8,3.9-28.3,8.5-50,8c-18.2-0.5-33-4.4-43-8 M214.3,419.9c-0.4,3.7-2.3,5.1-5.6,6.1
	c-24.6,7.1-48.8-2-62.7-23.3c-3.7-5.6-8.1-10.9-13-15.3c-7.4-6.8-16.9-8.6-26.9-8c-0.9,0.1-1.8,0.2-2.7,0.5
	c-0.7,0.3-1.3,0.7-2.5,1.6c1.4,1.6,2.2,3.4,3.8,4.4c14.2,9.1,21.8,23.2,29,37.4c13.1,25.9,36.8,38.9,66.6,35.8c4-0.4,8.1-1,12.7-1.6
	c0,9.3-0.1,18.4-0.1,27.6c-82.8-10.3-188.5-86.7-199-213.5C2.8,137.5,105.9,27.3,233.8,16c136.9-12.2,254.8,87.7,264.9,217.2
	c10.7,135.9-92.3,233.6-194,251.1c-0.1-1.9-0.2-3.9-0.2-5.7c0.1-15.4-0.1-31,0.3-46.4c0.4-14.4-1.7-28.2-10.2-41
	c6.7-1.3,13-2.3,19.2-3.8c17.1-4.1,32.7-11.2,45.8-23.1c15.5-14.3,23.5-32.2,25-52.6c1.4-19,0.5-38.1-4.1-56.8
	c-2.4-10.1-7-19-14.7-26.2c-2.5-2.4-2.6-4.5-1.4-7.6c6.5-15.6,5.6-31.2,0.2-46.9c-1.3-3.6-3.1-4.4-6.6-3.4
	c-10.6,2.8-19.3,8.5-26.8,15.9c-5,5-9.5,10.5-14.2,15.8c-24.2-14.4-90.4-14.7-113.6-0.2c-3.8-4.5-7.5-9.3-11.6-13.6
	c-7.7-8.2-16.7-14.7-27.8-18.1c-4.2-1.3-6.5-0.7-8,4c-4.8,15.9-5.5,31.5,0.3,47.2c0.5,1.3,0.4,3.7-0.5,4.6
	c-12.3,11.3-17,25.9-19.1,41.5c-2.3,17.7-3.7,35.5-0.4,53.2c5.1,27.3,21.4,46.8,47.2,58.1c12.7,5.6,26.4,8.7,40,13
	C217.8,399.9,214.9,409.5,214.3,419.9z"/>
<path class="st2" d="M151-21.5l12,37 M389.2-10.4l-22.4,31.8 M21.2,373.5l-29.1,25.8 M-44.2,213.3l38.8,2.4 M271.1-38.2V0.7
	 M-43.2,296.9h38.9 M-1.4,112.5L25,141 M73.6,70.2L50.7,38.7 M470.4,49.8l-27.5,27.5 M529.7,139.4l-34.4,18.2 M559.2,268.2l-42,1.7
	 M534.8,368l-32.9-20.7 M458.4,427.8l25.6,29.3 M67.5,446.1l-16.4,35.3 M387.8,478.3l12,37 M139.8,526.9l4.5-38.6 M267.9,507.6
	l2.3,38.8"/>
</svg>
