<?xml version="1.0" encoding="utf-8"?>
<!-- Generator: Adobe Illustrator 24.0.2, SVG Export Plug-In . SVG Version: 6.00 Build 0)  -->
<svg version="1.1" id="Layer_1" xmlns="http://www.w3.org/2000/svg" xmlns:xlink="http://www.w3.org/1999/xlink" x="0px" y="0px"
	 viewBox="0 0 512 512" style="enable-background:new 0 0 512 512;" xml:space="preserve">
<style type="text/css">
	.st0{fill:none;stroke:#000000;stroke-width:19;stroke-miterlimit:10;}
	.st1{fill:#FFFFFF;stroke:#000000;stroke-width:13;stroke-miterlimit:10;}
	.st2{fill:none;stroke:#000000;stroke-width:8;stroke-miterlimit:10;}
</style>
<path class="st0" d="M255.1,492.2c-134,0.5-244.3-109.9-241-245.1C17.2,118.7,124.8,12.5,258.5,14C391,15.6,500.3,124.7,496.9,259.4
	C493.7,387.5,387,493,255.1,492.2z"/>
<path class="st1" d="M223.5,392.2c-13.6-4.3-27.3-7.4-40-13c-25.8-11.3-42.1-30.8-47.2-58.1c-3.3-17.7-1.9-35.5,0.4-53.2
	c2.1-15.6,6.8-30.2,19.1-41.5c0.9-0.9,1-3.3,0.5-4.6c-5.8-15.7-5.1-31.3-0.3-47.2c1.5-4.7,3.8-5.3,8-4c11.1,3.4,20.1,9.9,27.8,18.1
	c4.1,4.3,7.8,9.1,11.6,13.6c23.2-14.5,89.4-14.2,113.6,0.2c4.7-5.3,9.2-10.8,14.2-15.8c7.5-7.4,16.2-13.1,26.8-15.9
	c3.5-1,5.3-0.2,6.6,3.4c5.4,15.7,6.3,31.3-0.2,46.9c-1.2,3.1-1.1,5.2,1.4,7.6c7.7,7.2,12.3,16.1,14.7,26.2
	c4.6,18.7,5.5,37.8,4.1,56.8c-1.5,20.4-9.5,38.3-25,52.6c-13.1,11.9-28.7,19-45.8,23.1c-6.2,1.5-12.5,2.5-19.2,3.8
	c8.5,12.8,10.6,26.6,10.2,41c-0.4,15.4-0.2,31-0.3,46.4c0,1.8,0.1,3.8,0.2,5.7c101.7-17.5,204.7-115.2,194-251.1
	C488.6,103.7,370.7,3.8,233.8,16C105.9,27.3,2.8,137.5,13.9,271.6c10.5,126.8,116.2,203.2,199,213.5c0-9.2,0.1-18.3,0.1-27.6
	c-4.6,0.6-8.7,1.2-12.7,1.6c-29.8,3.1-53.5-9.9-66.6-35.8c-7.2-14.2-14.8-28.3-29-37.4c-1.6-1-2.4-2.8-3.8-4.4
	c1.2-0.9,1.8-1.3,2.5-1.6c0.9-0.3,1.8-0.4,2.7-0.5c10-0.6,19.5,1.2,26.9,8c4.9,4.4,9.3,9.7,13,15.3c13.9,21.3,38.1,30.4,62.7,23.3
	c3.3-1,5.2-2.4,5.6-6.1C214.9,409.5,217.8,399.9,223.5,392.2z"/>
<path class="st2" d="M151-21.5l12,37 M389.2-10.4l-22.4,31.8 M21.2,373.5l-29.1,25.8 M-44.2,213.3l38.8,2.4 M271.1-38.2V0.7
	 M-43.2,296.9h38.9 M-1.4,112.5L25,141 M73.6,70.2L50.7,38.7 M470.4,49.8l-27.5,27.5 M529.7,139.4l-34.4,18.2 M559.2,268.2l-42,1.7
	 M534.8,368l-32.9-20.7 M458.4,427.8l25.6,29.3 M67.5,446.1l-16.4,35.3 M387.8,478.3l12,37 M139.8,526.9l4.5-38.6 M267.9,507.6
	l2.3,38.8"/>
</svg>
