<?xml version="1.0" encoding="utf-8"?>
<!-- Generator: Adobe Illustrator 24.0.2, SVG Export Plug-In . SVG Version: 6.00 Build 0)  -->
<svg version="1.1" id="Layer_1" xmlns:sketch="http://www.bohemiancoding.com/sketch/ns"
	 xmlns="http://www.w3.org/2000/svg" xmlns:xlink="http://www.w3.org/1999/xlink" x="0px" y="0px" viewBox="0 0 50 50"
	 style="enable-background:new 0 0 50 50;" xml:space="preserve">
<title></title>
<g>
	<path d="M25,0C11.2,0,0,11.2,0,25s11.2,25,25,25s25-11.2,25-25S38.8,0,25,0z M25,47C12.8,47,3,37.2,3,25S12.8,3,25,3s22,9.8,22,22
		S37.2,47,25,47z"/>
	<g>
		<path d="M17.3,14c-1.6,0-2.7,1.1-2.7,2.5c0,1.4,1,2.5,2.6,2.5h0c1.6,0,2.7-1.1,2.7-2.5C19.9,15.1,18.9,14,17.3,14z"/>
		<rect x="14.6" y="21.1" width="4.7" height="14.5"/>
		<path d="M31.2,21.1c-2.5,0-3.6,1.4-4.2,2.4v-2.1h-4.7c0.1,1.4,0,14.5,0,14.5h4.7v-8.1c0-0.4,0-0.9,0.2-1.2
			c0.3-0.9,1.1-1.8,2.4-1.8c1.7,0,2.4,1.3,2.4,3.3V36h4.7l0-8.3C36.6,23.2,34.3,21.1,31.2,21.1z"/>
	</g>
</g>
</svg>
